<mxfile host="app.diagrams.net" modified="2023-05-13T05:00:38.409Z" agent="Mozilla/5.0 (X11; Linux x86_64) AppleWebKit/537.36 (KHTML, like Gecko) Chrome/113.0.0.0 Safari/537.36" etag="Dp6_3icHmzG5E7W8v_mf" version="21.2.9" type="github">
  <diagram name="第 1 页" id="P4VHz6F8FDdTj_PXj5Aj">
    <mxGraphModel dx="603" dy="833" grid="1" gridSize="10" guides="1" tooltips="1" connect="1" arrows="1" fold="1" page="1" pageScale="1" pageWidth="583" pageHeight="827" math="0" shadow="0">
      <root>
        <mxCell id="0" />
        <mxCell id="1" parent="0" />
        <mxCell id="c3ZJOwvSEtLFaX0gyrFY-1" value="" style="rounded=1;whiteSpace=wrap;html=1;" vertex="1" parent="1">
          <mxGeometry x="138" y="300" width="140" height="280" as="geometry" />
        </mxCell>
        <mxCell id="c3ZJOwvSEtLFaX0gyrFY-24" style="edgeStyle=orthogonalEdgeStyle;rounded=0;orthogonalLoop=1;jettySize=auto;html=1;exitX=0.5;exitY=0;exitDx=0;exitDy=0;entryX=0.5;entryY=1;entryDx=0;entryDy=0;endArrow=none;endFill=0;" edge="1" parent="1" source="c3ZJOwvSEtLFaX0gyrFY-2" target="c3ZJOwvSEtLFaX0gyrFY-7">
          <mxGeometry relative="1" as="geometry" />
        </mxCell>
        <mxCell id="c3ZJOwvSEtLFaX0gyrFY-2" value="多头注意力&lt;br&gt;特征提取" style="rounded=1;whiteSpace=wrap;html=1;" vertex="1" parent="1">
          <mxGeometry x="178" y="500" width="80" height="40" as="geometry" />
        </mxCell>
        <mxCell id="c3ZJOwvSEtLFaX0gyrFY-8" style="edgeStyle=orthogonalEdgeStyle;rounded=0;orthogonalLoop=1;jettySize=auto;html=1;exitX=0.5;exitY=0;exitDx=0;exitDy=0;entryX=0.5;entryY=1;entryDx=0;entryDy=0;" edge="1" parent="1" source="c3ZJOwvSEtLFaX0gyrFY-3" target="c3ZJOwvSEtLFaX0gyrFY-2">
          <mxGeometry relative="1" as="geometry" />
        </mxCell>
        <mxCell id="c3ZJOwvSEtLFaX0gyrFY-3" value="+" style="ellipse;whiteSpace=wrap;html=1;" vertex="1" parent="1">
          <mxGeometry x="213" y="600" width="10" height="10" as="geometry" />
        </mxCell>
        <mxCell id="c3ZJOwvSEtLFaX0gyrFY-19" style="edgeStyle=orthogonalEdgeStyle;rounded=0;orthogonalLoop=1;jettySize=auto;html=1;exitX=0.5;exitY=0;exitDx=0;exitDy=0;entryX=0.5;entryY=1;entryDx=0;entryDy=0;" edge="1" parent="1" source="c3ZJOwvSEtLFaX0gyrFY-4" target="c3ZJOwvSEtLFaX0gyrFY-3">
          <mxGeometry relative="1" as="geometry" />
        </mxCell>
        <mxCell id="c3ZJOwvSEtLFaX0gyrFY-4" value="嵌入处理" style="rounded=1;whiteSpace=wrap;html=1;" vertex="1" parent="1">
          <mxGeometry x="188" y="630" width="60" height="30" as="geometry" />
        </mxCell>
        <mxCell id="c3ZJOwvSEtLFaX0gyrFY-21" style="edgeStyle=orthogonalEdgeStyle;rounded=0;orthogonalLoop=1;jettySize=auto;html=1;exitX=0.5;exitY=0;exitDx=0;exitDy=0;entryX=0.5;entryY=1;entryDx=0;entryDy=0;" edge="1" parent="1" source="c3ZJOwvSEtLFaX0gyrFY-7" target="c3ZJOwvSEtLFaX0gyrFY-9">
          <mxGeometry relative="1" as="geometry" />
        </mxCell>
        <mxCell id="c3ZJOwvSEtLFaX0gyrFY-7" value="残差处理&lt;br&gt;&amp;amp;归一化" style="rounded=1;whiteSpace=wrap;html=1;" vertex="1" parent="1">
          <mxGeometry x="178" y="450" width="80" height="30" as="geometry" />
        </mxCell>
        <mxCell id="c3ZJOwvSEtLFaX0gyrFY-23" style="edgeStyle=orthogonalEdgeStyle;rounded=0;orthogonalLoop=1;jettySize=auto;html=1;exitX=0.5;exitY=0;exitDx=0;exitDy=0;entryX=0.5;entryY=1;entryDx=0;entryDy=0;" edge="1" parent="1" source="c3ZJOwvSEtLFaX0gyrFY-9" target="c3ZJOwvSEtLFaX0gyrFY-22">
          <mxGeometry relative="1" as="geometry" />
        </mxCell>
        <mxCell id="c3ZJOwvSEtLFaX0gyrFY-9" value="前馈网络" style="rounded=1;whiteSpace=wrap;html=1;" vertex="1" parent="1">
          <mxGeometry x="178" y="370" width="80" height="30" as="geometry" />
        </mxCell>
        <mxCell id="c3ZJOwvSEtLFaX0gyrFY-10" value="" style="rounded=1;whiteSpace=wrap;html=1;" vertex="1" parent="1">
          <mxGeometry x="308" y="190" width="140" height="390" as="geometry" />
        </mxCell>
        <mxCell id="c3ZJOwvSEtLFaX0gyrFY-40" style="edgeStyle=orthogonalEdgeStyle;rounded=0;orthogonalLoop=1;jettySize=auto;html=1;exitX=0.5;exitY=0;exitDx=0;exitDy=0;entryX=0.5;entryY=1;entryDx=0;entryDy=0;endArrow=none;endFill=0;" edge="1" parent="1" source="c3ZJOwvSEtLFaX0gyrFY-11" target="c3ZJOwvSEtLFaX0gyrFY-15">
          <mxGeometry relative="1" as="geometry" />
        </mxCell>
        <mxCell id="c3ZJOwvSEtLFaX0gyrFY-11" value="掩码化&lt;br&gt;多头注意力&lt;br&gt;特征提取" style="rounded=1;whiteSpace=wrap;html=1;" vertex="1" parent="1">
          <mxGeometry x="320" y="490" width="80" height="50" as="geometry" />
        </mxCell>
        <mxCell id="c3ZJOwvSEtLFaX0gyrFY-12" style="edgeStyle=orthogonalEdgeStyle;rounded=0;orthogonalLoop=1;jettySize=auto;html=1;exitX=0.5;exitY=0;exitDx=0;exitDy=0;entryX=0.5;entryY=1;entryDx=0;entryDy=0;" edge="1" parent="1" source="c3ZJOwvSEtLFaX0gyrFY-13" target="c3ZJOwvSEtLFaX0gyrFY-11">
          <mxGeometry relative="1" as="geometry" />
        </mxCell>
        <mxCell id="c3ZJOwvSEtLFaX0gyrFY-52" style="edgeStyle=orthogonalEdgeStyle;rounded=0;orthogonalLoop=1;jettySize=auto;html=1;exitX=1;exitY=0.5;exitDx=0;exitDy=0;entryX=0;entryY=0.5;entryDx=0;entryDy=0;endArrow=none;endFill=0;" edge="1" parent="1" source="c3ZJOwvSEtLFaX0gyrFY-13" target="c3ZJOwvSEtLFaX0gyrFY-49">
          <mxGeometry relative="1" as="geometry" />
        </mxCell>
        <mxCell id="c3ZJOwvSEtLFaX0gyrFY-13" value="+" style="ellipse;whiteSpace=wrap;html=1;" vertex="1" parent="1">
          <mxGeometry x="355" y="600" width="10" height="10" as="geometry" />
        </mxCell>
        <mxCell id="c3ZJOwvSEtLFaX0gyrFY-27" style="edgeStyle=orthogonalEdgeStyle;rounded=0;orthogonalLoop=1;jettySize=auto;html=1;exitX=0.5;exitY=0;exitDx=0;exitDy=0;entryX=0.5;entryY=1;entryDx=0;entryDy=0;" edge="1" parent="1" source="c3ZJOwvSEtLFaX0gyrFY-14" target="c3ZJOwvSEtLFaX0gyrFY-13">
          <mxGeometry relative="1" as="geometry" />
        </mxCell>
        <mxCell id="c3ZJOwvSEtLFaX0gyrFY-14" value="嵌入处理" style="rounded=1;whiteSpace=wrap;html=1;" vertex="1" parent="1">
          <mxGeometry x="330" y="630" width="60" height="30" as="geometry" />
        </mxCell>
        <mxCell id="c3ZJOwvSEtLFaX0gyrFY-41" style="edgeStyle=orthogonalEdgeStyle;rounded=1;orthogonalLoop=1;jettySize=auto;html=1;exitX=0.5;exitY=0;exitDx=0;exitDy=0;entryX=0.75;entryY=1;entryDx=0;entryDy=0;" edge="1" parent="1" source="c3ZJOwvSEtLFaX0gyrFY-15" target="c3ZJOwvSEtLFaX0gyrFY-36">
          <mxGeometry relative="1" as="geometry" />
        </mxCell>
        <mxCell id="c3ZJOwvSEtLFaX0gyrFY-15" value="残差处理&lt;br&gt;&amp;amp;归一化" style="rounded=1;whiteSpace=wrap;html=1;" vertex="1" parent="1">
          <mxGeometry x="320" y="450" width="80" height="30" as="geometry" />
        </mxCell>
        <mxCell id="c3ZJOwvSEtLFaX0gyrFY-44" style="edgeStyle=orthogonalEdgeStyle;rounded=0;orthogonalLoop=1;jettySize=auto;html=1;exitX=0.5;exitY=0;exitDx=0;exitDy=0;entryX=0.5;entryY=1;entryDx=0;entryDy=0;endArrow=none;endFill=0;" edge="1" parent="1" source="c3ZJOwvSEtLFaX0gyrFY-16" target="c3ZJOwvSEtLFaX0gyrFY-33">
          <mxGeometry relative="1" as="geometry" />
        </mxCell>
        <mxCell id="c3ZJOwvSEtLFaX0gyrFY-16" value="前馈网络" style="rounded=1;whiteSpace=wrap;html=1;" vertex="1" parent="1">
          <mxGeometry x="320" y="250" width="80" height="30" as="geometry" />
        </mxCell>
        <mxCell id="c3ZJOwvSEtLFaX0gyrFY-17" value="" style="endArrow=classic;html=1;rounded=1;entryX=0.75;entryY=1;entryDx=0;entryDy=0;" edge="1" parent="1" target="c3ZJOwvSEtLFaX0gyrFY-2">
          <mxGeometry width="50" height="50" relative="1" as="geometry">
            <mxPoint x="218" y="560" as="sourcePoint" />
            <mxPoint x="268" y="540" as="targetPoint" />
            <Array as="points">
              <mxPoint x="238" y="560" />
            </Array>
          </mxGeometry>
        </mxCell>
        <mxCell id="c3ZJOwvSEtLFaX0gyrFY-18" value="" style="endArrow=classic;html=1;rounded=1;entryX=0.75;entryY=1;entryDx=0;entryDy=0;" edge="1" parent="1">
          <mxGeometry width="50" height="50" relative="1" as="geometry">
            <mxPoint x="218" y="560" as="sourcePoint" />
            <mxPoint x="198" y="540" as="targetPoint" />
            <Array as="points">
              <mxPoint x="198" y="560" />
            </Array>
          </mxGeometry>
        </mxCell>
        <mxCell id="c3ZJOwvSEtLFaX0gyrFY-22" value="残差处理&lt;br&gt;&amp;amp;归一化" style="rounded=1;whiteSpace=wrap;html=1;" vertex="1" parent="1">
          <mxGeometry x="178" y="320" width="80" height="30" as="geometry" />
        </mxCell>
        <mxCell id="c3ZJOwvSEtLFaX0gyrFY-25" value="" style="endArrow=classic;html=1;rounded=1;entryX=0;entryY=0.5;entryDx=0;entryDy=0;" edge="1" parent="1" target="c3ZJOwvSEtLFaX0gyrFY-7">
          <mxGeometry width="50" height="50" relative="1" as="geometry">
            <mxPoint x="218" y="570" as="sourcePoint" />
            <mxPoint x="198" y="510" as="targetPoint" />
            <Array as="points">
              <mxPoint x="158" y="570" />
              <mxPoint x="158" y="465" />
            </Array>
          </mxGeometry>
        </mxCell>
        <mxCell id="c3ZJOwvSEtLFaX0gyrFY-26" value="" style="endArrow=classic;html=1;rounded=1;entryX=0;entryY=0.5;entryDx=0;entryDy=0;" edge="1" parent="1" target="c3ZJOwvSEtLFaX0gyrFY-22">
          <mxGeometry width="50" height="50" relative="1" as="geometry">
            <mxPoint x="218" y="425" as="sourcePoint" />
            <mxPoint x="173" y="320" as="targetPoint" />
            <Array as="points">
              <mxPoint x="153" y="425" />
              <mxPoint x="153" y="335" />
            </Array>
          </mxGeometry>
        </mxCell>
        <mxCell id="c3ZJOwvSEtLFaX0gyrFY-28" value="" style="endArrow=none;html=1;rounded=0;exitX=1;exitY=0.5;exitDx=0;exitDy=0;entryX=0;entryY=0.5;entryDx=0;entryDy=0;" edge="1" parent="1" source="c3ZJOwvSEtLFaX0gyrFY-29" target="c3ZJOwvSEtLFaX0gyrFY-3">
          <mxGeometry width="50" height="50" relative="1" as="geometry">
            <mxPoint x="118" y="700" as="sourcePoint" />
            <mxPoint x="168" y="650" as="targetPoint" />
          </mxGeometry>
        </mxCell>
        <mxCell id="c3ZJOwvSEtLFaX0gyrFY-29" value="" style="ellipse;whiteSpace=wrap;html=1;aspect=fixed;" vertex="1" parent="1">
          <mxGeometry x="158" y="590" width="30" height="30" as="geometry" />
        </mxCell>
        <mxCell id="c3ZJOwvSEtLFaX0gyrFY-31" value="" style="endArrow=none;html=1;rounded=1;entryX=1;entryY=0.5;entryDx=0;entryDy=0;exitX=0;exitY=0.5;exitDx=0;exitDy=0;" edge="1" parent="1" source="c3ZJOwvSEtLFaX0gyrFY-29" target="c3ZJOwvSEtLFaX0gyrFY-29">
          <mxGeometry width="50" height="50" relative="1" as="geometry">
            <mxPoint x="158" y="610" as="sourcePoint" />
            <mxPoint x="208" y="560" as="targetPoint" />
            <Array as="points">
              <mxPoint x="168" y="600" />
              <mxPoint x="178" y="610" />
            </Array>
          </mxGeometry>
        </mxCell>
        <mxCell id="c3ZJOwvSEtLFaX0gyrFY-32" value="位置编码" style="text;html=1;strokeColor=none;fillColor=none;align=center;verticalAlign=middle;whiteSpace=wrap;rounded=0;" vertex="1" parent="1">
          <mxGeometry x="98" y="590" width="60" height="30" as="geometry" />
        </mxCell>
        <mxCell id="c3ZJOwvSEtLFaX0gyrFY-54" style="edgeStyle=orthogonalEdgeStyle;rounded=0;orthogonalLoop=1;jettySize=auto;html=1;exitX=0.5;exitY=0;exitDx=0;exitDy=0;entryX=0.5;entryY=1;entryDx=0;entryDy=0;" edge="1" parent="1" source="c3ZJOwvSEtLFaX0gyrFY-33" target="c3ZJOwvSEtLFaX0gyrFY-47">
          <mxGeometry relative="1" as="geometry" />
        </mxCell>
        <mxCell id="c3ZJOwvSEtLFaX0gyrFY-33" value="残差处理&lt;br&gt;&amp;amp;归一化" style="rounded=1;whiteSpace=wrap;html=1;" vertex="1" parent="1">
          <mxGeometry x="320" y="210" width="80" height="30" as="geometry" />
        </mxCell>
        <mxCell id="c3ZJOwvSEtLFaX0gyrFY-34" value="" style="endArrow=classic;html=1;rounded=1;entryX=0.75;entryY=1;entryDx=0;entryDy=0;" edge="1" parent="1">
          <mxGeometry width="50" height="50" relative="1" as="geometry">
            <mxPoint x="360" y="560" as="sourcePoint" />
            <mxPoint x="380" y="540" as="targetPoint" />
            <Array as="points">
              <mxPoint x="380" y="560" />
            </Array>
          </mxGeometry>
        </mxCell>
        <mxCell id="c3ZJOwvSEtLFaX0gyrFY-35" value="" style="endArrow=classic;html=1;rounded=1;entryX=0.75;entryY=1;entryDx=0;entryDy=0;" edge="1" parent="1">
          <mxGeometry width="50" height="50" relative="1" as="geometry">
            <mxPoint x="365" y="560" as="sourcePoint" />
            <mxPoint x="342" y="540" as="targetPoint" />
            <Array as="points">
              <mxPoint x="342" y="560" />
            </Array>
          </mxGeometry>
        </mxCell>
        <mxCell id="c3ZJOwvSEtLFaX0gyrFY-36" value="多头注意力&lt;br&gt;特征提取" style="rounded=1;whiteSpace=wrap;html=1;" vertex="1" parent="1">
          <mxGeometry x="320" y="365" width="80" height="40" as="geometry" />
        </mxCell>
        <mxCell id="c3ZJOwvSEtLFaX0gyrFY-43" style="edgeStyle=orthogonalEdgeStyle;rounded=0;orthogonalLoop=1;jettySize=auto;html=1;exitX=0.5;exitY=0;exitDx=0;exitDy=0;entryX=0.5;entryY=1;entryDx=0;entryDy=0;" edge="1" parent="1" source="c3ZJOwvSEtLFaX0gyrFY-37" target="c3ZJOwvSEtLFaX0gyrFY-16">
          <mxGeometry relative="1" as="geometry" />
        </mxCell>
        <mxCell id="c3ZJOwvSEtLFaX0gyrFY-37" value="残差处理&lt;br&gt;&amp;amp;归一化" style="rounded=1;whiteSpace=wrap;html=1;" vertex="1" parent="1">
          <mxGeometry x="320" y="320" width="80" height="30" as="geometry" />
        </mxCell>
        <mxCell id="c3ZJOwvSEtLFaX0gyrFY-38" value="" style="endArrow=classic;html=1;rounded=1;exitX=0.5;exitY=0;exitDx=0;exitDy=0;entryX=0.5;entryY=1;entryDx=0;entryDy=0;" edge="1" parent="1" source="c3ZJOwvSEtLFaX0gyrFY-22" target="c3ZJOwvSEtLFaX0gyrFY-36">
          <mxGeometry width="50" height="50" relative="1" as="geometry">
            <mxPoint x="238" y="290" as="sourcePoint" />
            <mxPoint x="288" y="240" as="targetPoint" />
            <Array as="points">
              <mxPoint x="218" y="290" />
              <mxPoint x="288" y="290" />
              <mxPoint x="288" y="420" />
              <mxPoint x="360" y="420" />
            </Array>
          </mxGeometry>
        </mxCell>
        <mxCell id="c3ZJOwvSEtLFaX0gyrFY-39" value="" style="endArrow=classic;html=1;rounded=1;exitX=0.5;exitY=0;exitDx=0;exitDy=0;entryX=0.25;entryY=1;entryDx=0;entryDy=0;" edge="1" parent="1" source="c3ZJOwvSEtLFaX0gyrFY-22" target="c3ZJOwvSEtLFaX0gyrFY-36">
          <mxGeometry width="50" height="50" relative="1" as="geometry">
            <mxPoint x="228" y="330" as="sourcePoint" />
            <mxPoint x="370" y="415" as="targetPoint" />
            <Array as="points">
              <mxPoint x="218" y="290" />
              <mxPoint x="288" y="290" />
              <mxPoint x="288" y="420" />
              <mxPoint x="340" y="420" />
            </Array>
          </mxGeometry>
        </mxCell>
        <mxCell id="c3ZJOwvSEtLFaX0gyrFY-42" value="" style="endArrow=classic;html=1;rounded=1;entryX=1;entryY=0.5;entryDx=0;entryDy=0;" edge="1" parent="1" target="c3ZJOwvSEtLFaX0gyrFY-37">
          <mxGeometry width="50" height="50" relative="1" as="geometry">
            <mxPoint x="360" y="440" as="sourcePoint" />
            <mxPoint x="448" y="390" as="targetPoint" />
            <Array as="points">
              <mxPoint x="418" y="440" />
              <mxPoint x="418" y="335" />
            </Array>
          </mxGeometry>
        </mxCell>
        <mxCell id="c3ZJOwvSEtLFaX0gyrFY-46" value="" style="endArrow=classic;html=1;rounded=1;entryX=1;entryY=0.5;entryDx=0;entryDy=0;" edge="1" parent="1" target="c3ZJOwvSEtLFaX0gyrFY-33">
          <mxGeometry width="50" height="50" relative="1" as="geometry">
            <mxPoint x="360" y="300" as="sourcePoint" />
            <mxPoint x="438" y="250" as="targetPoint" />
            <Array as="points">
              <mxPoint x="418" y="300" />
              <mxPoint x="418" y="225" />
            </Array>
          </mxGeometry>
        </mxCell>
        <mxCell id="c3ZJOwvSEtLFaX0gyrFY-55" style="edgeStyle=orthogonalEdgeStyle;rounded=0;orthogonalLoop=1;jettySize=auto;html=1;exitX=0.5;exitY=0;exitDx=0;exitDy=0;entryX=0.5;entryY=1;entryDx=0;entryDy=0;" edge="1" parent="1" source="c3ZJOwvSEtLFaX0gyrFY-47" target="c3ZJOwvSEtLFaX0gyrFY-48">
          <mxGeometry relative="1" as="geometry">
            <mxPoint x="359.95348837209303" y="140" as="targetPoint" />
          </mxGeometry>
        </mxCell>
        <mxCell id="c3ZJOwvSEtLFaX0gyrFY-47" value="线性连接层" style="rounded=1;whiteSpace=wrap;html=1;" vertex="1" parent="1">
          <mxGeometry x="320" y="140" width="80" height="30" as="geometry" />
        </mxCell>
        <mxCell id="c3ZJOwvSEtLFaX0gyrFY-48" value="Softmax归一化" style="rounded=1;whiteSpace=wrap;html=1;" vertex="1" parent="1">
          <mxGeometry x="316" y="90" width="88" height="30" as="geometry" />
        </mxCell>
        <mxCell id="c3ZJOwvSEtLFaX0gyrFY-49" value="" style="ellipse;whiteSpace=wrap;html=1;aspect=fixed;" vertex="1" parent="1">
          <mxGeometry x="390" y="590" width="30" height="30" as="geometry" />
        </mxCell>
        <mxCell id="c3ZJOwvSEtLFaX0gyrFY-51" value="" style="endArrow=none;html=1;rounded=1;entryX=1;entryY=0.5;entryDx=0;entryDy=0;exitX=0;exitY=0.5;exitDx=0;exitDy=0;" edge="1" parent="1">
          <mxGeometry width="50" height="50" relative="1" as="geometry">
            <mxPoint x="390" y="605" as="sourcePoint" />
            <mxPoint x="420" y="605" as="targetPoint" />
            <Array as="points">
              <mxPoint x="400" y="600" />
              <mxPoint x="410" y="610" />
            </Array>
          </mxGeometry>
        </mxCell>
        <mxCell id="c3ZJOwvSEtLFaX0gyrFY-53" value="位置编码" style="text;html=1;strokeColor=none;fillColor=none;align=center;verticalAlign=middle;whiteSpace=wrap;rounded=0;" vertex="1" parent="1">
          <mxGeometry x="426" y="590" width="60" height="30" as="geometry" />
        </mxCell>
      </root>
    </mxGraphModel>
  </diagram>
</mxfile>
